<mxfile host="app.diagrams.net" modified="2021-11-08T11:00:19.431Z" agent="5.0 (Macintosh; Intel Mac OS X 10_15_7) AppleWebKit/537.36 (KHTML, like Gecko) Chrome/95.0.4638.69 Safari/537.36" etag="wJzfhBf1QN3Z4m5UQ8cP" version="15.7.0" type="github">
  <diagram id="KC6zrE5bN2sj6da9sWSV" name="第 1 页">
    <mxGraphModel dx="1230" dy="834" grid="1" gridSize="10" guides="1" tooltips="1" connect="1" arrows="1" fold="1" page="1" pageScale="1" pageWidth="827" pageHeight="1169" math="0" shadow="0">
      <root>
        <mxCell id="0" />
        <mxCell id="1" parent="0" />
        <mxCell id="zN2FoMMVV2aKQu9Xat4g-1" value="router" style="shape=umlLifeline;perimeter=lifelinePerimeter;whiteSpace=wrap;html=1;container=1;collapsible=0;recursiveResize=0;outlineConnect=0;" vertex="1" parent="1">
          <mxGeometry x="70" y="210" width="100" height="300" as="geometry" />
        </mxCell>
        <mxCell id="zN2FoMMVV2aKQu9Xat4g-2" value="controller" style="shape=umlLifeline;perimeter=lifelinePerimeter;whiteSpace=wrap;html=1;container=1;collapsible=0;recursiveResize=0;outlineConnect=0;" vertex="1" parent="1">
          <mxGeometry x="240" y="210" width="100" height="300" as="geometry" />
        </mxCell>
        <mxCell id="zN2FoMMVV2aKQu9Xat4g-3" value="serviceManager" style="shape=umlLifeline;perimeter=lifelinePerimeter;whiteSpace=wrap;html=1;container=1;collapsible=0;recursiveResize=0;outlineConnect=0;" vertex="1" parent="1">
          <mxGeometry x="390" y="210" width="100" height="300" as="geometry" />
        </mxCell>
        <mxCell id="zN2FoMMVV2aKQu9Xat4g-4" value="service" style="shape=umlLifeline;perimeter=lifelinePerimeter;whiteSpace=wrap;html=1;container=1;collapsible=0;recursiveResize=0;outlineConnect=0;" vertex="1" parent="1">
          <mxGeometry x="530" y="210" width="100" height="300" as="geometry" />
        </mxCell>
        <mxCell id="zN2FoMMVV2aKQu9Xat4g-9" value="" style="endArrow=classic;html=1;rounded=0;" edge="1" parent="1" source="zN2FoMMVV2aKQu9Xat4g-2" target="zN2FoMMVV2aKQu9Xat4g-3">
          <mxGeometry width="50" height="50" relative="1" as="geometry">
            <mxPoint x="320" y="370" as="sourcePoint" />
            <mxPoint x="370" y="320" as="targetPoint" />
          </mxGeometry>
        </mxCell>
        <mxCell id="zN2FoMMVV2aKQu9Xat4g-10" value="GetEventService&lt;br&gt;" style="text;html=1;align=center;verticalAlign=middle;resizable=0;points=[];autosize=1;strokeColor=none;fillColor=none;" vertex="1" parent="1">
          <mxGeometry x="315" y="330" width="110" height="20" as="geometry" />
        </mxCell>
        <mxCell id="zN2FoMMVV2aKQu9Xat4g-11" value="" style="endArrow=classic;html=1;rounded=0;" edge="1" parent="1" source="zN2FoMMVV2aKQu9Xat4g-3" target="zN2FoMMVV2aKQu9Xat4g-2">
          <mxGeometry width="50" height="50" relative="1" as="geometry">
            <mxPoint x="350" y="480" as="sourcePoint" />
            <mxPoint x="400" y="430" as="targetPoint" />
            <Array as="points">
              <mxPoint x="310" y="400" />
            </Array>
          </mxGeometry>
        </mxCell>
        <mxCell id="zN2FoMMVV2aKQu9Xat4g-14" value="" style="endArrow=classic;html=1;rounded=0;" edge="1" parent="1" source="zN2FoMMVV2aKQu9Xat4g-1" target="zN2FoMMVV2aKQu9Xat4g-2">
          <mxGeometry width="50" height="50" relative="1" as="geometry">
            <mxPoint x="170" y="360" as="sourcePoint" />
            <mxPoint x="220" y="310" as="targetPoint" />
            <Array as="points">
              <mxPoint x="210" y="320" />
            </Array>
          </mxGeometry>
        </mxCell>
        <mxCell id="zN2FoMMVV2aKQu9Xat4g-15" value="" style="endArrow=classic;html=1;rounded=0;" edge="1" parent="1" source="zN2FoMMVV2aKQu9Xat4g-2" target="zN2FoMMVV2aKQu9Xat4g-4">
          <mxGeometry width="50" height="50" relative="1" as="geometry">
            <mxPoint x="350" y="480" as="sourcePoint" />
            <mxPoint x="400" y="430" as="targetPoint" />
            <Array as="points">
              <mxPoint x="440" y="440" />
            </Array>
          </mxGeometry>
        </mxCell>
        <mxCell id="zN2FoMMVV2aKQu9Xat4g-17" value="DoEvent" style="text;html=1;align=center;verticalAlign=middle;resizable=0;points=[];autosize=1;strokeColor=none;fillColor=none;" vertex="1" parent="1">
          <mxGeometry x="400" y="420" width="60" height="20" as="geometry" />
        </mxCell>
      </root>
    </mxGraphModel>
  </diagram>
</mxfile>
